<?xml version="1.0" encoding="UTF-8"?>
<svg width="24px" height="24px" viewBox="0 0 24 24" version="1.1" xmlns="http://www.w3.org/2000/svg" xmlns:xlink="http://www.w3.org/1999/xlink">
    <title>Delegate Copy</title>
    <g id="Table" stroke="none" stroke-width="1" fill="none" fill-rule="evenodd" opacity="0.64">
        <g id="Delegate" transform="translate(-164, -96)">
            <g id="Delegate-Copy" transform="translate(165.5, 103.5)">
                <g id="Icons-/-Arrow-/-Direction-Right" stroke="#FFFFFF" stroke-linejoin="round">
                    <line x1="1.54626312e-13" y1="4.5" x2="9" y2="4.5" id="Path-3-Copy"></line>
                    <polyline id="Path-3" points="4.5 0 9 4.5 4.5 9"></polyline>
                </g>
                <g id="[i]-Accoutn-type-Copy" transform="translate(10.5, 0)" fill="#FFFFFF">
                    <path d="M4.5,0 C3.2571,0 2.25,1.00755 2.25,2.25 C2.25,3.4929 3.2571,4.5 4.5,4.5 C5.7429,4.5 6.75,3.4929 6.75,2.25 C6.75,1.00755 5.7429,0 4.5,0 M9,7.8768 L9,8.54865 C9,8.79795 8.79795,9 8.54865,9 L0.45135,9 C0.20205,9 0,8.79795 0,8.54865 L0,7.8768 C0,6.633 1.008,5.625 2.2518,5.625 L6.7482,5.625 C7.992,5.625 9,6.633 9,7.8768" id="Fill-3"></path>
                </g>
            </g>
        </g>
    </g>
</svg>